<svg width="113" height="21" viewBox="0 0 113 21" fill="none" xmlns="http://www.w3.org/2000/svg">
<path d="M32 10.1689C32 15.4157 27.7467 19.6689 22.5 19.6689C17.2533 19.6689 13 15.4157 13 10.1689C13 4.92224 17.2533 0.668945 22.5 0.668945C27.7467 0.668945 32 4.92224 32 10.1689Z" fill="#37C472" stroke="#37C673"/>
<path fill-rule="evenodd" clip-rule="evenodd" d="M19.9525 11.1495L19.0194 11.0587C19.0479 10.7662 19.0625 10.4694 19.0625 10.1689C19.0625 9.86847 19.0479 9.57168 19.0194 9.27921L19.9525 9.1884C19.9839 9.511 20 9.8381 20 10.1689C20 10.4998 19.9839 10.8269 19.9525 11.1495ZM19.5719 7.26511L18.6746 7.53695C18.5012 6.96432 18.2724 6.41555 17.9946 5.89679L18.821 5.45414C19.1277 6.02674 19.3803 6.63268 19.5719 7.26511ZM17.7304 3.82491L17.006 4.42006C16.629 3.96118 16.2078 3.53994 15.7489 3.16291L16.344 2.43854C16.8501 2.85434 17.3146 3.31885 17.7304 3.82491ZM14.7148 1.34795L14.2722 2.17438C13.7534 1.89652 13.2046 1.66779 12.632 1.4943L12.9038 0.597077C13.5363 0.788687 14.1422 1.04126 14.7148 1.34795ZM10.9805 0.216408L10.8897 1.1495C10.5973 1.12104 10.3005 1.10645 10 1.10645C9.69952 1.10645 9.40273 1.12104 9.11026 1.1495L9.01945 0.216409C9.34206 0.185012 9.66915 0.168945 10 0.168945C10.3308 0.168945 10.6579 0.185012 10.9805 0.216408ZM7.09617 0.597078L7.368 1.4943C6.79538 1.66779 6.24661 1.89652 5.72784 2.17438L5.28519 1.34796C5.8578 1.04126 6.46374 0.788687 7.09617 0.597078ZM3.65597 2.43855L4.25112 3.16291C3.79223 3.53994 3.37099 3.96118 2.99396 4.42007L2.2696 3.82492C2.68539 3.31885 3.1499 2.85434 3.65597 2.43855ZM1.17901 5.45414L2.00543 5.89679C1.72757 6.41555 1.49885 6.96432 1.32536 7.53695L0.428132 7.26512C0.619741 6.63268 0.872313 6.02675 1.17901 5.45414ZM0.0474631 9.1884C0.0160669 9.511 0 9.8381 0 10.1689C0 10.4998 0.016067 10.8269 0.0474633 11.1495L0.980555 11.0587C0.952091 10.7662 0.9375 10.4694 0.9375 10.1689C0.9375 9.86847 0.952091 9.57168 0.980555 9.27921L0.0474631 9.1884ZM0.428133 13.0728L1.32536 12.8009C1.49885 13.3736 1.72757 13.9223 2.00543 14.4411L1.17901 14.8838C0.872314 14.3111 0.619742 13.7052 0.428133 13.0728ZM2.2696 16.513L2.99396 15.9178C3.371 16.3767 3.79223 16.798 4.25112 17.175L3.65597 17.8993C3.14991 17.4836 2.68539 17.019 2.2696 16.513ZM5.2852 18.9899L5.72784 18.1635C6.24661 18.4414 6.79538 18.6701 7.368 18.8436L7.09617 19.7408C6.46374 19.5492 5.8578 19.2966 5.2852 18.9899ZM9.01945 20.1215L9.11026 19.1884C9.40273 19.2169 9.69952 19.2314 10 19.2314C10.3005 19.2314 10.5973 19.2169 10.8897 19.1884L10.9806 20.1215C10.6579 20.1529 10.3308 20.1689 10 20.1689C9.66915 20.1689 9.34206 20.1529 9.01945 20.1215ZM12.9038 19.7408L12.632 18.8436C13.2046 18.6701 13.7534 18.4414 14.2722 18.1635L14.7148 18.9899C14.1422 19.2966 13.5363 19.5492 12.9038 19.7408ZM16.344 17.8993L15.7489 17.175C16.2078 16.798 16.629 16.3767 17.006 15.9178L17.7304 16.513C17.3146 17.019 16.8501 17.4836 16.344 17.8993ZM18.821 14.8837C19.1277 14.3111 19.3803 13.7052 19.5719 13.0728L18.6746 12.8009C18.5012 13.3736 18.2724 13.9223 17.9946 14.4411L18.821 14.8837Z" fill="#818181"/>
<path d="M50.0988 18.7521C49.1451 18.7521 48.3822 18.5772 47.8099 18.2275C47.2377 17.8778 46.7529 17.3374 46.3556 16.6063L43.9952 12.2432H42.2548V18.4183C42.2548 18.5931 42.1515 18.6805 41.9448 18.6805H39.0599C38.8533 18.6805 38.75 18.5931 38.75 18.4183V1.91963C38.75 1.74479 38.8533 1.65736 39.0599 1.65736H43.8999C46.1251 1.65736 47.7782 2.05473 48.859 2.84946C49.9557 3.64419 50.5041 4.85219 50.5041 6.47344C50.5041 7.64964 50.2418 8.6669 49.7173 9.52521C49.1928 10.3676 48.4139 11.0273 47.3808 11.5041L49.2166 14.6989C49.4868 15.144 49.7491 15.4619 50.0034 15.6526C50.2736 15.8274 50.6233 15.9149 51.0524 15.9149H51.1955C51.4021 15.9149 51.5054 16.0023 51.5054 16.1771V18.4898C51.5054 18.6646 51.4021 18.7521 51.1955 18.7521H50.0988ZM43.8999 9.35832C44.8694 9.35832 45.6006 9.14374 46.0933 8.71459C46.602 8.28543 46.8563 7.65759 46.8563 6.83107C46.8563 6.03634 46.6099 5.46413 46.1172 5.11445C45.6244 4.76477 44.8218 4.58993 43.7091 4.58993H42.2548V9.35832H43.8999Z" fill="#CCCCCC"/>
<path d="M60.1174 15.9149C61.3413 15.9149 62.2553 15.438 62.8592 14.4843C63.4632 13.5307 63.7652 12.0684 63.7652 10.0974C63.7652 8.14238 63.4712 6.71186 62.8831 5.80587C62.3109 4.88398 61.3969 4.42303 60.1413 4.42303C58.9015 4.42303 57.9796 4.90782 57.3756 5.87739C56.7716 6.83107 56.4696 8.28543 56.4696 10.2405C56.4696 12.1955 56.7637 13.634 57.3518 14.5559C57.9399 15.4619 58.8617 15.9149 60.1174 15.9149ZM60.1174 18.9189C57.7014 18.9189 55.8736 18.2196 54.6338 16.8209C53.4099 15.4221 52.7979 13.3479 52.7979 10.5981C52.7979 7.65759 53.4337 5.39261 54.7053 3.80314C55.9769 2.21368 57.7889 1.41895 60.1413 1.41895C62.5572 1.41895 64.3772 2.11831 65.6011 3.51704C66.8409 4.91577 67.4607 6.99002 67.4607 9.73979C67.4607 12.6803 66.817 14.9453 65.5295 16.5347C64.258 18.1242 62.4539 18.9189 60.1174 18.9189Z" fill="#CCCCCC"/>
<path d="M79.2644 9.73979C79.2644 9.58084 79.3438 9.50137 79.5028 9.50137H82.4592C82.6181 9.50137 82.6976 9.58084 82.6976 9.73979V17.5361C82.6976 17.6792 82.6738 17.7904 82.6261 17.8699C82.5784 17.9494 82.4592 18.0288 82.2685 18.1083C81.728 18.3308 80.9969 18.5216 80.075 18.6805C79.1531 18.8395 78.2789 18.9189 77.4524 18.9189C74.8139 18.9189 72.8429 18.2355 71.5396 16.8685C70.2521 15.4857 69.6084 13.4035 69.6084 10.6219C69.6084 7.63375 70.3077 5.35287 71.7065 3.7793C73.1052 2.20573 75.1159 1.41895 77.7385 1.41895C79.0895 1.41895 80.3452 1.63352 81.5055 2.06268C81.7598 2.14215 81.887 2.24547 81.887 2.37262C81.887 2.4521 81.8631 2.56336 81.8155 2.70641L81.2194 4.70914C81.1717 4.89987 81.1002 4.99524 81.0048 4.99524C80.973 4.99524 80.9174 4.98729 80.8379 4.9714C80.7744 4.9555 80.7028 4.93166 80.6234 4.89987C79.622 4.61377 78.6365 4.47072 77.667 4.47072C76.2206 4.47072 75.1238 4.94756 74.3768 5.90123C73.6456 6.85491 73.28 8.26159 73.28 10.1213C73.28 12.1081 73.6138 13.5625 74.2814 14.4843C74.9649 15.3903 76.0378 15.8433 77.5001 15.8433C78.1835 15.8433 78.7716 15.7559 79.2644 15.5811V9.73979Z" fill="#CCCCCC"/>
<path d="M86.0454 18.6805C85.8387 18.6805 85.7354 18.5931 85.7354 18.4183V1.91963C85.7354 1.74479 85.8387 1.65736 86.0454 1.65736H96.202C96.3769 1.65736 96.4643 1.76068 96.4643 1.96731V4.37535C96.4643 4.58198 96.3769 4.68529 96.202 4.68529H89.3117V8.35696H94.3185C94.4934 8.35696 94.5808 8.46027 94.5808 8.6669V11.0749C94.5808 11.2816 94.4934 11.3849 94.3185 11.3849H89.3117V15.6526H96.3928C96.5676 15.6526 96.655 15.7559 96.655 15.9625V18.3706C96.655 18.5772 96.5676 18.6805 96.3928 18.6805H86.0454Z" fill="#CCCCCC"/>
<path d="M110.612 18.7521C109.658 18.7521 108.895 18.5772 108.323 18.2275C107.751 17.8778 107.266 17.3374 106.869 16.6063L104.508 12.2432H102.768V18.4183C102.768 18.5931 102.664 18.6805 102.458 18.6805H99.5729C99.3663 18.6805 99.2629 18.5931 99.2629 18.4183V1.91963C99.2629 1.74479 99.3663 1.65736 99.5729 1.65736H104.413C106.638 1.65736 108.291 2.05473 109.372 2.84946C110.469 3.64419 111.017 4.85219 111.017 6.47344C111.017 7.64964 110.755 8.6669 110.23 9.52521C109.706 10.3676 108.927 11.0273 107.894 11.5041L109.73 14.6989C110 15.144 110.262 15.4619 110.516 15.6526C110.787 15.8274 111.136 15.9149 111.565 15.9149H111.708C111.915 15.9149 112.018 16.0023 112.018 16.1771V18.4898C112.018 18.6646 111.915 18.7521 111.708 18.7521H110.612ZM104.413 9.35832C105.382 9.35832 106.114 9.14374 106.606 8.71459C107.115 8.28543 107.369 7.65759 107.369 6.83107C107.369 6.03634 107.123 5.46413 106.63 5.11445C106.137 4.76477 105.335 4.58993 104.222 4.58993H102.768V9.35832H104.413Z" fill="#CCCCCC"/>
</svg>
